<svg xmlns="http://www.w3.org/2000/svg" width="256" height="256" viewBox="0 0 100 100"><rect width="100" height="100" rx="20" fill="#417505"></rect><path fill="#fff" d="M38.05 59.92L47.89 59.92Q47.03 69.02 41.17 74.12Q35.31 79.22 25.59 79.22L25.59 79.22Q18.79 79.22 13.61 76.00Q8.44 72.77 5.63 66.84Q2.81 60.90 2.70 53.05L2.70 53.05L2.70 47.73Q2.70 39.69 5.55 33.55Q8.40 27.42 13.73 24.10Q19.06 20.78 26.05 20.78L26.05 20.78Q35.47 20.78 41.21 25.90Q46.95 31.02 47.89 40.35L47.89 40.35L38.05 40.35Q37.34 34.22 34.47 31.50Q31.60 28.79 26.05 28.79L26.05 28.79Q19.61 28.79 16.15 33.50Q12.70 38.20 12.62 47.30L12.62 47.30L12.62 52.34Q12.62 61.56 15.92 66.41Q19.22 71.25 25.59 71.25L25.59 71.25Q31.41 71.25 34.34 68.63Q37.27 66.02 38.05 59.92L38.05 59.92ZM77.46 78.44L56.72 78.44L56.72 21.56L76.21 21.56Q85.86 21.56 90.90 25.43Q95.94 29.30 95.94 36.95L95.94 36.95Q95.94 40.86 93.83 43.98Q91.72 47.11 87.66 48.83L87.66 48.83Q92.27 50.08 94.79 53.54Q97.30 56.99 97.30 61.84L97.30 61.84Q97.30 69.84 92.17 74.14Q87.03 78.44 77.46 78.44L77.46 78.44ZM78.40 52.77L66.60 52.77L66.60 70.55L77.58 70.55Q82.23 70.55 84.84 68.24Q87.46 65.94 87.46 61.84L87.46 61.84Q87.46 52.97 78.40 52.77L78.40 52.77ZM66.60 29.53L66.60 45.51L76.29 45.51Q80.90 45.51 83.50 43.42Q86.09 41.33 86.09 37.50L86.09 37.50Q86.09 33.28 83.69 31.41Q81.29 29.53 76.21 29.53L76.21 29.53L66.60 29.53Z"></path></svg>